<svg width="32" height="32" viewBox="0 0 32 32" fill="none" xmlns="http://www.w3.org/2000/svg">
<path d="M16 0C9.24531 0 3.75 5.49531 3.75 12.25C3.75 14.4121 4.32125 16.5378 5.40194 18.3972C5.65387 18.8307 5.9355 19.2531 6.23912 19.6528L15.4677 32H16.5322L25.7609 19.6529C26.0644 19.2531 26.3461 18.8307 26.5981 18.3972C27.6787 16.5378 28.25 14.4121 28.25 12.25C28.25 5.49531 22.7547 0 16 0ZM16 16.3125C13.7599 16.3125 11.9375 14.4901 11.9375 12.25C11.9375 10.0099 13.7599 8.1875 16 8.1875C18.2401 8.1875 20.0625 10.0099 20.0625 12.25C20.0625 14.4901 18.2401 16.3125 16 16.3125Z" fill="#F54A00"/>
<rect width="10.6667" height="10.6667" transform="matrix(-1 0 0 1 21.3359 6.66699)" fill="#F54A00"/>
<g clipPath="url(#clip0_19634_96843)">
<path d="M23.8328 8.41516C23.5663 7.37012 22.9983 6.469 22.1902 5.8092C21.403 5.1665 20.4385 4.8125 19.4747 4.8125C18.7358 4.8125 18.0309 5.01147 17.3796 5.40381C16.8653 5.71375 16.4028 6.13525 15.9986 6.66138C15.0796 5.4635 13.8662 4.8125 12.5242 4.8125C11.5607 4.8125 10.5967 5.1665 9.80956 5.8092C9.0017 6.469 8.43382 7.37012 8.16735 8.41504C7.87767 9.55139 7.82152 11.3674 9.20006 13.5658C10.4761 15.6006 12.6879 17.486 15.7742 19.1694C15.8441 19.2075 15.9213 19.2267 15.9985 19.2267C16.0758 19.2267 16.1529 19.2077 16.2229 19.1694C19.3101 17.4858 21.5226 15.6005 22.7991 13.5658C24.1782 11.3674 24.1224 9.55152 23.8328 8.41516ZM15.9985 18.2229C12.3402 16.1869 10.5299 14.1676 9.66954 12.4883H10.9797C11.1573 12.4883 11.3196 12.3879 11.3989 12.2293L11.9838 11.0596L13.5725 14.2372C13.6518 14.396 13.8142 14.4963 13.9917 14.4963C14.1692 14.4963 14.3315 14.396 14.4109 14.2372L15.9996 11.0596L16.5845 12.2293C16.6639 12.3881 16.8262 12.4883 17.0037 12.4883H20.5581C20.8169 12.4883 21.0267 12.2784 21.0267 12.0197C21.0267 11.7609 20.8169 11.551 20.5581 11.551H17.2933L16.4189 9.80201C16.3395 9.64319 16.1772 9.54297 15.9996 9.54297C15.8221 9.54297 15.6599 9.64319 15.5806 9.80201L13.9917 12.9796L12.4029 9.80201C12.3235 9.64319 12.1612 9.54297 11.9838 9.54297C11.8061 9.54297 11.6439 9.64319 11.5646 9.80201L10.6901 11.551H9.26927C8.8048 10.193 8.94725 9.15015 9.07567 8.64673C9.51061 6.94116 10.9286 5.74988 12.5242 5.74988C13.7309 5.74988 14.8225 6.45496 15.5976 7.73499C15.6825 7.87525 15.8345 7.96094 15.9984 7.96094H15.9985C16.1623 7.96094 16.3144 7.87537 16.3994 7.73511C17.1752 6.45496 18.2673 5.74988 19.4747 5.74988C21.0709 5.74988 22.4895 6.94116 22.9244 8.64673C23.2261 9.82984 23.606 13.99 15.9985 18.2229Z" fill="white"/>
</g>
<defs>
<clipPath id="clip0_19634_96843">
<rect width="16" height="16" fill="white" transform="translate(8 4)"/>
</clipPath>
</defs>
</svg>
